<?xml version="1.0" encoding="utf-8"?>
<!-- Generator: Adobe Illustrator 22.0.1, SVG Export Plug-In . SVG Version: 6.00 Build 0)  -->
<svg version="1.1" id="Layer_1" xmlns="http://www.w3.org/2000/svg" xmlns:xlink="http://www.w3.org/1999/xlink" x="0px" y="0px"
	 viewBox="0 0 810 1440" style="enable-background:new 0 0 810 1440;" xml:space="preserve">
<style type="text/css">
	.st0{fill:#FFFFFF;}
	.st1{fill:#B5B5B5;}
	.st2{fill:#D9DBDB;}
</style>
<path class="st0" d="M477.3,770.3c0,0-95.9,21.8-93.7-10l1.1-116.8c0-11-2.8-18.8-0.1-19l103.8-0.7c11,0,19.9-2,19.9,19.9
	c0,0-1.7,121.2-4,124.9C501.8,772.6,482.9,770.3,477.3,770.3z"/>
<path class="st1" d="M500.3,805.5H377.5c-9.9,0-17.9-8-17.9-17.9l0,0c0-9.9,8-17.9,17.9-17.9h122.8c9.9,0,1.3,8,1.3,17.9l0,0
	C501.6,797.5,510.1,805.5,500.3,805.5z"/>
<path class="st2" d="M377.6,771.7l-15.3,5.9c-8.6,0-2.6-16-2.6-24.5l-1.5-104.7c0-8.6,2.3-20.5,10.8-20.5l0,0
	c8.6,0,15.5-5.3,15.5,3.2v120.6C384.5,760.2,386.1,771.7,377.6,771.7z"/>
<g>
	<path d="M386.4,628.1c0-1.6-1.3-2.9-2.9-2.9s-2.9,1.3-2.9,2.9v141.9c0,1.6,1.3,2.9,2.9,2.9s2.9-1.3,2.9-2.9V628.1z"/>
	<path d="M377,767.2h129.5c1.6,0,2.9,1.3,2.9,2.9c0,0.6-0.2,1.2-0.6,1.7c-3.4,5.4-5.3,10.7-5.3,15.9c-0.1,5.3,1.6,10.6,5.4,15.9l0,0
		c0.9,1.3,0.6,3.1-0.7,4c-0.5,0.3-1.1,0.5-1.6,0.5H377c-5.6,0-10.8-2.3-14.5-6c-3.7-3.7-6-8.8-6-14.5c0-5.6,2.3-10.8,6-14.5
		C366.2,769.5,371.4,767.2,377,767.2z M501.6,772.9H377c-4.1,0-7.7,1.7-10.4,4.3c-2.7,2.7-4.3,6.4-4.3,10.4c0,4.1,1.7,7.7,4.3,10.4
		c2.7,2.7,6.4,4.3,10.4,4.3h124.4c-2.5-4.9-3.7-9.8-3.7-14.8C497.8,782.7,499.1,777.8,501.6,772.9z"/>
	<path d="M356.5,787.7c0,1.6,1.3,2.9,2.9,2.8c1.6,0,2.9-1.3,2.8-2.9L360.9,644v0h0l0-0.1h0c0-3.9,1.6-7.4,4.2-10
		c2.6-2.6,6.2-4.2,10.1-4.2h0v0c0,0,0.1,0,0.1,0v0h128.4l-0.7,141.5c0,1.6,1.3,2.9,2.9,2.9c1.6,0,2.9-1.3,2.9-2.9l0.7-144.1
		c0-0.1,0-0.2,0-0.3c0-1.6-1.3-2.9-2.9-2.9H375.2v0c-0.1,0-0.1,0-0.2,0v0c-5.5,0.1-10.4,2.3-14.1,5.9c-3.6,3.6-5.9,8.6-5.9,14.1v0h0
		c0,0.1,0,0.1,0,0.2h0L356.5,787.7z"/>
</g>
</svg>
