<?xml version="1.0" encoding="utf-8"?>
<!-- Generator: Adobe Illustrator 22.0.1, SVG Export Plug-In . SVG Version: 6.00 Build 0)  -->
<svg version="1.1" id="Layer_1" xmlns="http://www.w3.org/2000/svg" xmlns:xlink="http://www.w3.org/1999/xlink" x="0px" y="0px"
	 viewBox="0 0 810 1440" style="enable-background:new 0 0 810 1440;" xml:space="preserve">
<style type="text/css">
	.st0{fill:#F4F4F4;}
	.st1{fill:#C4C4C4;}
	.st2{fill:#D9DBDB;}
	.st3{fill:#FFFFFF;}
</style>
<path class="st0" d="M440.5,731.9c0,0-89.4,21.8-87.3-10l1-116.8c0-11-2.6-18.8-0.1-19l96.7-0.7c10.3,0,18.5-2,18.5,19.9
	c0,0-1.6,121.2-3.7,124.9C463.3,734.2,445.7,731.9,440.5,731.9z"/>
<path class="st1" d="M463,756.9H348.6c-9.2,0-16.7-5.4-16.7-12l0,0c0-6.6,7.5-12,16.7-12H463c9.2,0,1.2,5.4,1.2,12l0,0
	C464.2,751.5,472.1,756.9,463,756.9z"/>
<path class="st2" d="M347.6,733.3l-14.3,5.9c-8,0-2.4-16-2.4-24.5L329.5,610c0-8.6,2.1-20.5,10.1-20.5l0,0c8,0,14.4-5.3,14.4,3.2
	v120.6C354,721.8,355.5,733.3,347.6,733.3z"/>
<g>
	<path class="st3" d="M355.8,588.7c0-1.6-1.2-2.9-2.7-2.9s-2.7,1.3-2.7,2.9v141.9c0,1.6,1.2,2.9,2.7,2.9s2.7-1.3,2.7-2.9V588.7z"/>
	<path class="st3" d="M348.1,731.2h120.7c1.5,0,2.7,0.9,2.7,1.9c0,0.4-0.2,0.8-0.6,1.1c-3.2,3.6-4.9,7.2-4.9,10.7
		c-0.1,3.6,1.5,7.1,5,10.7l0,0c0.8,0.9,0.6,2.1-0.7,2.7c-0.5,0.2-1,0.3-1.5,0.3H348.1c-5.2,0-10.1-1.5-13.5-4
		c-3.4-2.5-5.6-5.9-5.6-9.7c0-3.8,2.1-7.2,5.6-9.7C338,732.7,342.9,731.2,348.1,731.2z M464.2,735H348.1c-3.8,0-7.2,1.1-9.7,2.9
		c-2.5,1.8-4,4.3-4,7c0,2.8,1.6,5.2,4,7c2.5,1.8,6,2.9,9.7,2.9H464c-2.3-3.3-3.4-6.6-3.4-9.9C460.7,741.6,461.9,738.3,464.2,735z"/>
	<path class="st3" d="M327.9,748.3c0,1.6,1.2,2.9,2.7,2.8c1.5,0,2.7-1.3,2.6-2.9L332,604.6l0,0l0,0v-0.1l0,0c0-3.9,1.5-7.4,3.9-10
		s5.8-4.2,9.4-4.2l0,0l0,0h0.1l0,0h108.2c6.3,0,11.4,5.1,11.4,11.4l-0.6,130.1c0,1.6,1.2,2.9,2.7,2.9s2.7-1.3,2.7-2.9l0.7-147.3
		c0-0.1,0,11.2,0,11.1c0-1.6,0-11.1-11.9-11.1H345.3l0,0c-0.1,0-0.1,0-0.2,0l0,0c-5.1,0.1-9.7,2.3-13.1,5.9
		c-3.4,3.6-5.5,8.6-5.5,14.1l0,0l0,0c0,0.1,0,0.1,0,0.2l0,0L327.9,748.3z"/>
</g>
</svg>
